<svg xmlns="http://www.w3.org/2000/svg" viewBox="0 0 81.819748 40.528873">
  <defs>
    <clipPath id="a">
      <path fill="#white" d="M0 0h309.23999v153.17999H0z"/>
    </clipPath>
  </defs>
  <g fill="none" clip-path="url(#a)" transform="scale(.26458)">
    <path fill="#000" d="M89.8299 81.83l-16.41-23.46v23.46h-16.98V27.84h16.98v22.83l16.86-22.68H110.39L89.7199 53.46 110.71 81.83z"/>
    <path fill="#00ff84" d="M299.29 152.84c5.495 0 9.95-4.405 9.95-9.84 0-5.434-4.455-9.84-9.95-9.84-5.495 0-9.95 4.406-9.95 9.84 0 5.435 4.455 9.84 9.95 9.84zM126.05 19.68c5.495 0 9.95-4.4055 9.95-9.84 0-5.43448-4.455-9.84-9.95-9.84-5.495 0-9.95 4.40552-9.95 9.84 0 5.4345 4.455 9.84 9.95 9.84z"/>
    <path fill="#000" d="M134.54 27.84h-16.98v53.99h16.98zM117.24 124.8c0-16.09 9.94-28.3699 25.58-28.3699 7.82 0 13.96 3.6899 16.87 9.1599v-7.7099h16.98V151.72h-16.98v-7.6c-2.91 5.36-9.61 9.05-17.09 9.05-16.08.01-25.36-12.17-25.36-28.37zm43.12 0c0-7.71-4.36-14.08-12.85-14.08-7.93 0-12.85 5.92-12.85 14.08 0 8.15 4.91 14.19 12.85 14.19 8.5 0 12.85-6.37 12.85-14.19zM186.67 97.88h17.09v11.28c1.9-8.04 8.27-12.17 14.86-12.17 2.01 0 3.13.11 4.47.45l-.09 15.85c-2.01-.23-2.93-.33-5.05-.33-9.27 0-14.19 6.03-14.19 17.98v20.78h-17.09zM226.55 124.8c0-17.65 11.51-28.3699 29.04-28.3699 16.76 0 28.15 10.3899 28.15 25.5799 0 2.79-.11 4.47-.45 7.48h-39.77c.33 7.04 5.03 10.84 12.62 10.84 5.25 0 8.6-1.45 10.05-4.8h16.76c-1.67 10.61-12.51 17.65-26.81 17.65-18.31 0-29.59-10.39-29.59-28.38zm40.33-5.92c-.11-7.15-4.13-10.95-11.39-10.95-7.37 0-11.84 4.36-11.95 10.95zM161.5 65.8V27.84h-17.09V81.83h41.47V65.8zM212.23 65.8V27.84h-17.09V81.83h41.47V65.8zM93.6699 97.86v19.39h-20.48V97.86h-16.75v54h16.75v-19.13h20.48v19.13H110.43v-54zM35.36 119.75l-10.44-2.89c-3.53-1.05-4.75-2.6-4.75-4.79 0-2.39 1.88-3.8 4.31-4.08 3.53-.41 6.26 1.12 6.26 4.93v.25H48.7v-.25h-.01c0-10.75-9.09-16.68-24.27-16.68-13.84 0-22.99 6.72-22.99 16.91 0 8.17 4.91 13.66 13.5 15.78l10.77 2.7c3.2 1.01 4.49 2.58 4.48 5.04-.01 2.69-2.71 4.21-5.47 4.34-4 .18-6.91-1.99-7.13-5.44H0c.26 10.3 10.34 17.54 25.43 17.54 14.28 0 23.55-6.6 23.55-17.8-.01-8.17-5.14-13.32-13.62-15.56zM35.36 49.86l-10.44-2.89c-3.53-1.05-4.75-2.6-4.75-4.79 0-2.39 1.88-3.8 4.31-4.08 3.53-.41 6.26 1.12 6.26 4.93v.25H48.7v-.25h-.01c0-10.75-9.09-16.68-24.27-16.68-13.84 0-22.99 6.72-22.99 16.91 0 8.17 4.91 13.66 13.5 15.78l10.77 2.7c3.2 1.01 4.49 2.58 4.48 5.04-.01 2.69-2.71 4.21-5.47 4.34-4 .18-6.91-1.99-7.13-5.44H0c.26 10.3 10.34 17.54 25.43 17.54 14.28 0 23.55-6.6 23.55-17.8-.01-8.17-5.14-13.32-13.62-15.56z"/>
  </g>
</svg>